<svg xmlns="http://www.w3.org/2000/svg" style="width:0;height:0;visibility:hidden;">
  <defs/>
  <symbol id="rd-icon-spotter" viewBox="0 0 24 29" fill="none" class="fill-black">
    <path
      d="M3.56727 17.9041C0.306166 13.2472 1.43802 6.82833 6.09527 3.56741C10.7524 0.306309 17.1713 1.43813 20.4324 6.09543C23.6933 10.7525 22.5612 17.1714 17.904 20.4325C13.2473 23.6934 6.82817 22.5614 3.56727 17.9041ZM21.8285 5.1178C18.0276 -0.310478 10.5458 -1.62987 5.11769 2.17102C-0.31059 5.97215 -1.63001 13.4536 2.17091 18.8819C4.67897 22.4634 8.78892 24.255 12.8543 23.9682L8.78615 26.8171C8.40059 27.0868 8.30681 27.6185 8.57663 28.0041C8.8466 28.3893 9.37799 28.4831 9.76359 28.2135L18.8818 21.8287C24.3102 18.028 25.6291 10.5459 21.8285 5.1178Z"
      fill="black"
    />
  </symbol>
</svg>

